<svg width="140" height="38" fill="none" xmlns="http://www.w3.org/2000/svg"><g clip-path="url(#a)"><path d="M17.591 5c-1.849 0-4.207 2.358-4.207 6.463v2.002c-1.221-.78-2.646-1.205-4.427-1.205C3.919 12.277 0 16.247 0 21.166c0 4.92 3.749 8.89 8.923 8.89 2.493 0 4.461-.9 5.75-2.138.849 1.17 1.9 1.815 2.816 1.815.713 0 1.07-.39 1.07-1.256V6.17c0-.78-.357-1.17-.968-1.17ZM9.313 25.39c-2.494 0-4.071-1.815-4.071-4.24 0-2.426 1.577-4.242 4.071-4.242 2.494 0 4.071 1.816 4.071 4.241 0 2.443-1.577 4.241-4.071 4.241Zm28.346-12.468h-1.747c-1.255 0-1.713.509-1.713 1.713v6.396c0 2.578-1.324 4.105-3.461 4.105-2.205 0-3.325-1.46-3.325-4.173v-6.328c0-1.255-.509-1.713-1.713-1.713h-1.747c-1.205 0-1.714.458-1.714 1.713v6.463c0 5.53 2.782 8.957 7.668 8.957 2.171 0 4.105-.848 5.462-2.324.814 1.29 1.934 2.002 2.935 2.002.61 0 1.068-.39 1.068-1.256V14.635c0-1.255-.509-1.713-1.713-1.713Zm13.775 17.133c5.241 0 9.143-3.97 9.143-8.889 0-5.038-3.919-8.889-9.143-8.889-5.208 0-9.144 3.97-9.144 8.89 0 5.037 3.936 8.888 9.144 8.888Zm0-4.665c-2.358 0-3.92-1.815-3.92-4.24 0-2.426 1.544-4.242 3.92-4.242 2.392 0 3.918 1.816 3.918 4.241-.017 2.443-1.526 4.241-3.918 4.241Zm13.706 4.02h1.747c1.188 0 1.713-.457 1.713-1.713V6.255C68.6 5.39 68.244 5 67.532 5c-1.747 0-4.105 2.358-4.105 6.463v16.234c0 1.256.508 1.713 1.713 1.713ZM75.2 10.564c1.577 0 2.917-1.221 2.917-2.782C78.117 6.222 76.777 5 75.2 5c-1.611 0-2.917 1.221-2.917 2.782 0 1.56 1.289 2.782 2.917 2.782Zm-.883 18.846h1.747c1.256 0 1.714-.508 1.714-1.713V14.635c0-1.204-.458-1.713-1.714-1.713h-1.747c-1.255 0-1.713.509-1.713 1.713v13.062c0 1.188.458 1.713 1.713 1.713Zm17.066-17.133c-2.138 0-4.173.866-5.598 2.392-.849-1.357-1.968-2.07-2.935-2.07-.713 0-1.069.39-1.069 1.256v13.842c0 1.256.51 1.713 1.714 1.713h1.747c1.255 0 1.713-.508 1.713-1.713v-6.412c0-2.561 1.493-4.105 3.681-4.105 2.223 0 3.393 1.493 3.393 4.173v6.344c0 1.256.509 1.713 1.713 1.713h1.747c1.205 0 1.714-.457 1.714-1.713v-6.599c0-5.394-2.748-8.82-7.82-8.82Zm24.953 12.028c1.526-1.137 2.46-2.85 2.46-4.818 0-.814-.17-1.544-.492-2.256 1.713-.849 2.357-2.392 2.357-3.851s-.576-1.883-1.424-1.493c-3.037 1.391-3.461 1.46-5.463 1.103-1.255-.22-2.171-.39-3.392-.39-2.256 0-4.106.712-5.666 2.001-1.459 1.222-2.206 3.003-2.206 4.886 0 1.968.9 3.68 2.46 4.818-2.035 1.068-3.46 3.324-3.46 6.005 0 4.427 3.562 7.498 9.109 7.498 5.819 0 9.144-3.393 9.144-7.82.034-2.681-1.392-4.683-3.427-5.683Zm-5.683-7.498c1.883 0 3.036.966 3.036 2.917 0 1.544-1.289 2.918-3.036 2.918s-3.002-1.357-3.002-2.918c0-1.832 1.187-2.917 3.002-2.917Zm0 16.743c-2.256 0-3.936-1.46-3.936-3.325 0-2.07 1.578-3.325 3.936-3.325 2.392 0 3.97 1.255 3.97 3.325 0 1.9-1.646 3.325-3.97 3.325Zm20.204-3.495c5.242 0 9.143-3.97 9.143-8.889 0-5.038-3.919-8.889-9.143-8.889-5.208 0-9.144 3.97-9.144 8.89 0 5.037 3.936 8.888 9.144 8.888Zm0-4.665c-2.358 0-3.919-1.815-3.919-4.24 0-2.426 1.544-4.242 3.919-4.242 2.392 0 3.918 1.816 3.918 4.241 0 2.443-1.526 4.241-3.918 4.241Z" fill="#fff"/></g><defs><clipPath id="a"><path fill="#fff" transform="translate(0 .1)" d="M0 0h140v37.8H0z"/></clipPath></defs></svg>