<svg width="136" height="34" fill="none" xmlns="http://www.w3.org/2000/svg"><path d="M53.217 12.357h4.264v13.398h-4.264V12.357Zm5.154 0h4.107v1.832h.078c.995-1.44 2.276-2.224 4.134-2.224 2.93 0 4.656 2.093 4.656 5.076v8.713h-4.264v-7.85c0-1.413-.706-2.38-2.093-2.38-1.412 0-2.354 1.177-2.354 2.825v7.405h-4.264V12.357Zm-.464-3.584a2.558 2.558 0 1 0-5.117 0 2.558 2.558 0 0 0 5.117 0Zm43.427 3.391a4.794 4.794 0 0 0-.424-.016c-1.622 0-2.721.707-3.663 2.303h-.078v-2.093h-4.081v13.397h4.264v-6.018c0-2.789 1.544-4.081 3.982-3.856v-3.717Zm20.925 5.139c-1.7-.314-3.218-.445-3.218-1.387 0-.838.812-1.23 1.858-1.23 1.177 0 1.988.366 2.145 1.57h3.924c-.209-2.643-2.25-4.291-6.043-4.291-3.165 0-5.781 1.465-5.781 4.291 0 3.14 2.485 3.768 4.813 4.16 1.779.314 3.401.445 3.401 1.649 0 .863-.811 1.334-2.093 1.334-1.286 0-2.136-.544-2.397-1.648h-4.063c.299 2.754 2.716 4.422 6.486 4.422 3.506 0 6.095-1.518 6.095-4.448 0-3.428-2.773-4.03-5.127-4.422ZM107.949 15c1.386 0 2.38 1.02 2.537 2.617h-5.284c.288-1.597 1.125-2.617 2.747-2.617Zm.235 8.085c-1.753 0-2.747-1.125-3.008-2.93h9.626c.027-2.722-.758-5.05-2.354-6.516-1.151-1.046-2.668-1.674-4.578-1.674-4.081 0-6.88 3.061-6.88 7.065 0 4.055 2.721 7.117 7.142 7.117 1.7 0 3.06-.445 4.185-1.23 1.177-.811 1.962-1.962 2.25-3.166h-4.159c-.367.837-1.099 1.334-2.224 1.334Zm26.712-.49c-.198.008-.463.02-.707.02-.915 0-1.491-.262-1.491-1.31v-6.28h2.198v-2.668h-2.198V8.118h-4.159v4.239h-1.309v2.669h1.309v7.196c0 2.878 1.779 3.69 4.264 3.69.948 0 1.665-.072 2.093-.155v-3.162Zm-55.936.006c-.17.007-.366.013-.55.013-.915 0-1.49-.262-1.49-1.308v-6.28h2.04v-2.669h-2.04V8.118h-4.16v4.239h-1.387v2.669h1.387v7.196c0 2.878 1.779 3.69 4.264 3.69.84 0 1.5-.057 1.936-.128v-3.183Z" fill="#fff"/><path d="M88.248 17.617C88.09 16.02 87.097 15 85.71 15c-1.622 0-2.459 1.02-2.746 2.617h5.284Zm-9.496 1.413c0-4.004 2.799-7.065 6.88-7.065 1.91 0 3.427.628 4.578 1.674 1.596 1.466 2.38 3.794 2.354 6.516h-9.626c.261 1.805 1.255 2.93 3.008 2.93 1.125 0 1.857-.497 2.223-1.334h4.16c-.288 1.203-1.073 2.355-2.25 3.166-1.125.785-2.485 1.23-4.186 1.23-4.42 0-7.141-3.062-7.141-7.117Zm-32.94-3.192c1.674 0 2.616-.995 2.616-2.486 0-1.492-.968-2.407-2.616-2.407h-3.27v4.893h3.27Zm-7.587-8.792h7.404c2.276 0 3.95.628 5.101 1.727 1.204 1.125 1.884 2.721 1.884 4.605 0 3.585-2.485 6.123-6.331 6.123h-3.742v6.254h-4.316V7.045ZM16.273.86C7.38.86.172 8.068.172 16.961c0 6.822 4.244 12.654 10.233 15-.141-1.273-.268-3.233.055-4.624.293-1.257 1.888-8.004 1.888-8.004s-.481-.965-.481-2.39c0-2.24 1.297-3.912 2.913-3.912 1.373 0 2.037 1.032 2.037 2.269 0 1.381-.88 3.447-1.334 5.361-.379 1.603.804 2.91 2.384 2.91 2.862 0 5.061-3.018 5.061-7.374 0-3.855-2.77-6.551-6.724-6.551-4.581 0-7.27 3.437-7.27 6.988 0 1.384.533 2.868 1.198 3.675.132.16.151.3.112.462-.122.508-.394 1.602-.447 1.826-.07.295-.233.357-.539.215-2.01-.936-3.267-3.876-3.267-6.238 0-5.08 3.69-9.745 10.637-9.745 5.584 0 9.924 3.981 9.924 9.3 0 5.55-3.498 10.017-8.354 10.017-1.63 0-3.164-.848-3.69-1.85 0 0-.806 3.075-1.002 3.829-.364 1.398-1.345 3.152-2.001 4.221a16.07 16.07 0 0 0 4.767.718c8.89 0 16.098-7.21 16.098-16.103S25.164.86 16.272.86Z" fill="#fff"/></svg>