<svg width="127" height="36" fill="none" xmlns="http://www.w3.org/2000/svg"><g clip-path="url(#a)" fill="#fff"><path d="M44.278 19.917c-1.068-.586-1.63-1.061-1.63-1.732 0-.866.758-1.397 1.967-1.397 1.405 0 2.64.587 2.64.587l.984-2.99s-.899-.698-3.568-.698c-3.709 0-6.294 2.124-6.294 5.085 0 1.676 1.208 2.961 2.81 3.883 1.292.727 1.742 1.257 1.742 2.012 0 .81-.646 1.452-1.855 1.452-1.798 0-3.484-.921-3.484-.921l-1.04 2.989s1.574 1.034 4.187 1.034c3.822 0 6.547-1.872 6.547-5.225.056-1.844-1.349-3.129-3.006-4.079Zm15.228-6.286c-1.882 0-3.343.894-4.495 2.236l-.056-.028 1.63-8.493h-4.243l-4.13 21.595h4.242l1.405-7.375c.562-2.794 1.995-4.498 3.343-4.498.956 0 1.32.642 1.32 1.564 0 .587-.055 1.285-.196 1.872l-1.601 8.465h4.242l1.658-8.716c.197-.922.31-2.012.31-2.766.027-2.43-1.237-3.855-3.429-3.855Zm13.066 0c-5.114 0-8.514 4.582-8.514 9.695 0 3.268 2.023 5.922 5.844 5.922 5.03 0 8.401-4.47 8.401-9.694.029-3.045-1.742-5.922-5.731-5.922Zm-2.08 12.349c-1.46 0-2.05-1.23-2.05-2.766 0-2.43 1.264-6.37 3.568-6.37 1.517 0 1.995 1.285 1.995 2.543 0 2.626-1.265 6.593-3.513 6.593Zm18.713-12.348c-2.866 0-4.495 2.514-4.495 2.514h-.056l.252-2.263h-3.765c-.196 1.537-.534 3.855-.87 5.615l-2.95 15.478h4.242l1.18-6.258h.084s.871.558 2.5.558c5.002 0 8.261-5.084 8.261-10.225 0-2.877-1.264-5.42-4.383-5.42ZM85.16 26.064c-1.096 0-1.742-.615-1.742-.615l.703-3.94c.505-2.625 1.882-4.385 3.343-4.385 1.293 0 1.686 1.201 1.686 2.319 0 2.71-1.63 6.62-3.99 6.62ZM99.657 7.54A2.428 2.428 0 0 0 97.213 10c0 1.257.787 2.123 1.995 2.123h.056c1.32 0 2.472-.894 2.5-2.459.028-1.229-.814-2.123-2.106-2.123Zm-5.956 21.402h4.271l2.894-14.974h-4.299l-2.866 14.974Zm17.955-15.03h-2.95l.141-.699c.252-1.452 1.095-2.738 2.528-2.738.759 0 1.349.224 1.349.224l.843-3.297s-.731-.363-2.304-.363c-1.517 0-3.007.42-4.159 1.397-1.461 1.23-2.135 2.99-2.472 4.777l-.112.699h-1.967l-.618 3.184h1.966l-2.247 11.818h4.242l2.248-11.818h2.922l.59-3.184Zm10.228.055s-2.67 6.65-3.85 10.281h-.056c-.084-1.173-1.039-10.28-1.039-10.28h-4.468l2.557 13.745c.056.307.028.502-.084.698-.506.95-1.321 1.872-2.304 2.542-.787.587-1.686.95-2.389 1.202l1.18 3.576c.871-.196 2.642-.894 4.159-2.291 1.939-1.816 3.737-4.582 5.563-8.381l5.198-11.092h-4.467ZM21.154 34.836l10.508-2.263S27.87 7.067 27.842 6.9a.326.326 0 0 0-.31-.28c-.14 0-2.81-.195-2.81-.195s-1.854-1.844-2.079-2.04a.592.592 0 0 0-.169-.111l-1.32 30.563Zm.871-30.619c-.028 0-.084.028-.112.028-.029 0-.422.112-1.04.307-.618-1.788-1.714-3.436-3.653-3.436h-.168C16.49.418 15.816.11 15.225.11c-4.523 0-6.687 5.616-7.361 8.465-1.742.531-3.007.922-3.147.978-.983.307-1.012.335-1.124 1.257-.112.67-2.67 20.366-2.67 20.366l19.753 3.688 1.349-30.647Zm-5.142 1.369v.196c-1.096.335-2.304.698-3.484 1.061.674-2.57 1.939-3.827 3.035-4.302.28.726.45 1.704.45 3.045Zm-1.798-4.274c.197 0 .393.056.59.195-1.433.67-3.007 2.375-3.653 5.783a91.75 91.75 0 0 1-2.753.838c.758-2.598 2.585-6.816 5.816-6.816Zm.787 15.17s-1.18-.615-2.585-.615c-2.108 0-2.192 1.313-2.192 1.648 0 1.788 4.72 2.487 4.72 6.705 0 3.325-2.107 5.448-4.973 5.448-3.428 0-5.17-2.123-5.17-2.123l.928-3.018s1.798 1.537 3.315 1.537c.983 0 1.405-.782 1.405-1.341 0-2.347-3.878-2.458-3.878-6.314 0-3.24 2.333-6.397 7.081-6.397 1.826 0 2.725.53 2.725.53l-1.376 3.94ZM17.67 2.345c1.011.112 1.658 1.257 2.08 2.543-.507.167-1.069.335-1.687.53v-.363c0-1.09-.14-1.983-.393-2.71Z"/></g><defs><clipPath id="a"><path fill="#fff" d="M0 0h127v36H0z"/></clipPath></defs></svg>