<svg xmlns="http://www.w3.org/2000/svg" width="132" height="34.339"><g><path d="M 0 0.501 L 132 0.501 L 132 34.339 L 0 34.339 Z" fill="transparent"></path><path d="M 47.858 7.919 L 41.127 25.652 L 44.567 25.652 L 45.998 21.506 L 53.005 21.506 L 54.412 25.652 L 57.878 25.652 L 51.398 7.919 Z M 46.778 18.995 C 48.335 14.65 48.963 12.891 49.539 11.108 C 50.369 13.695 51.223 16.107 52.219 18.995 L 46.777 18.995 Z M 65.977 12.899 C 64.441 12.88 62.987 13.595 62.066 14.825 L 62.066 7.92 L 59.121 7.92 L 59.121 25.653 L 61.934 25.653 L 61.934 24.02 C 62.79 25.25 63.944 25.904 65.652 25.904 C 68.742 25.904 70.802 23.492 70.802 19.398 C 70.802 15.304 68.917 12.9 65.977 12.9 Z M 64.924 23.453 C 63.064 23.453 61.984 21.923 61.984 19.266 C 61.984 16.88 63.24 15.373 65.024 15.373 C 66.699 15.373 67.736 16.905 67.736 19.416 C 67.736 22.061 66.658 23.442 64.924 23.442 Z M 76.98 15.031 C 78.187 15.031 79.142 15.684 79.77 16.791 L 81.96 15.308 C 80.852 13.547 79.016 12.795 77.03 12.795 C 73.936 12.795 72.172 14.605 72.172 16.567 C 72.172 18.479 73.403 19.611 75.34 20.214 L 76.68 20.641 C 78.566 21.244 78.993 21.596 78.993 22.427 C 78.993 23.181 78.289 23.735 77.006 23.735 C 75.623 23.735 74.466 22.98 73.814 21.697 L 71.525 23.204 C 72.581 24.789 74.316 26.022 76.885 26.022 C 80.005 26.022 81.94 24.337 81.94 22.022 C 81.94 20.012 80.683 18.979 78.47 18.274 L 77.13 17.872 C 75.52 17.37 75.12 17.018 75.12 16.264 C 75.12 15.51 75.717 15.031 76.98 15.031 Z M 87.912 21.777 L 87.912 15.508 L 90.335 15.508 L 90.335 13.151 L 87.912 13.151 L 87.912 9.063 L 84.985 9.063 L 84.928 13.153 L 82.972 13.153 L 82.972 15.509 L 84.928 15.509 L 84.928 22.361 C 84.928 23.52 85.106 24.403 85.633 25.007 C 86.161 25.612 86.973 25.914 88.201 25.914 C 88.943 25.912 89.681 25.817 90.399 25.631 L 90.399 23.283 C 90.012 23.426 89.603 23.503 89.189 23.509 C 88.279 23.518 87.912 23.065 87.912 21.776 Z M 94.812 15.077 L 94.812 13.152 L 91.998 13.152 L 91.998 25.715 L 94.946 25.715 L 94.946 19.853 C 94.946 18.513 95.167 17.629 95.601 16.976 C 96.147 16.192 96.928 15.718 98.281 15.733 C 98.647 15.739 99.01 15.795 99.36 15.9 L 99.36 13.153 C 99.011 13.041 98.647 12.984 98.281 12.985 C 96.549 12.99 95.569 13.722 94.812 15.078 Z M 110.651 22.28 L 110.651 17.757 C 110.651 15.794 110.388 14.763 109.607 14.033 C 108.77 13.227 107.569 12.825 105.858 12.825 C 102.662 12.825 100.645 14.333 100.444 17.053 L 103.267 17.305 C 103.418 15.921 104.096 15.14 105.632 15.14 C 106.413 15.14 107.016 15.308 107.368 15.668 C 107.719 16.028 107.847 16.474 107.847 17.176 L 107.847 17.846 C 105.858 17.973 103.443 18.325 102.21 18.877 C 100.726 19.557 99.92 20.615 99.92 22.227 C 99.92 24.467 101.53 25.903 103.82 25.903 C 105.605 25.903 106.964 25.275 107.92 24.117 C 108.193 25.369 109.074 25.831 110.649 25.831 C 111.104 25.84 111.557 25.772 111.989 25.63 L 111.989 23.72 C 110.857 23.925 110.659 23.26 110.651 22.28 Z M 107.847 20.393 C 107.82 21.097 107.696 21.803 107.292 22.382 C 106.739 23.211 105.808 23.69 104.676 23.69 C 103.367 23.69 102.763 23.01 102.763 22.105 C 102.763 21.4 103.064 20.921 103.845 20.569 C 104.726 20.142 106.413 19.889 107.847 19.814 L 107.847 20.394 Z M 118.724 23.548 C 116.789 23.548 115.632 22.091 115.632 19.327 C 115.632 16.537 116.94 15.257 118.647 15.257 C 119.828 15.257 120.732 15.809 121.086 17.467 L 123.726 16.563 C 123.146 14.327 121.438 12.793 118.72 12.793 C 114.975 12.793 112.611 15.281 112.611 19.377 C 112.611 23.498 114.925 26.011 118.57 26.011 C 121.417 26.011 123.071 24.503 123.801 22.417 L 121.161 21.513 C 120.861 22.845 120.057 23.548 118.724 23.548 Z M 129.399 21.777 L 129.399 15.508 L 131.82 15.508 L 131.82 13.151 L 129.399 13.151 L 129.399 9.063 L 126.473 9.063 L 126.421 13.153 L 124.463 13.153 L 124.463 15.509 L 126.426 15.509 L 126.426 22.361 C 126.426 23.52 126.604 24.403 127.131 25.007 C 127.659 25.612 128.471 25.914 129.699 25.914 C 130.437 25.911 131.171 25.816 131.885 25.631 L 131.885 23.283 C 131.498 23.426 131.09 23.503 130.678 23.509 C 129.77 23.518 129.399 23.065 129.399 21.776 Z M 16.83 0 C 3.43 -0.035 0.07 3.307 0.035 16.708 C 0 30.109 3.34 33.468 16.742 33.503 C 30.144 33.538 33.504 30.196 33.539 16.795 C 33.574 3.395 30.232 0.035 16.831 0 Z M 14.038 25.913 C 11.444 25.914 9.105 24.351 8.112 21.955 C 7.12 19.559 7.668 16.8 9.502 14.966 C 11.336 13.132 14.094 12.583 16.491 13.575 C 18.887 14.568 20.45 16.906 20.45 19.5 C 20.446 23.04 17.578 25.909 14.038 25.913 Z M 25.685 25.65 L 22.545 25.65 L 22.545 10.993 L 7.886 10.993 L 7.886 7.853 L 25.684 7.853 L 25.684 25.649 Z" fill="rgb(255,255,255)"></path><path d="M 14.037 16.229 C 12.23 16.229 10.764 17.694 10.764 19.502 C 10.764 21.309 12.23 22.774 14.037 22.774 C 15.844 22.774 17.309 21.309 17.309 19.502 C 17.309 17.695 15.844 16.23 14.037 16.23 Z" fill="rgb(255,255,255)"></path></g></svg>